<?xml version="1.0" standalone="no"?>
<!DOCTYPE svg PUBLIC "-//W3C//DTD SVG 1.1//EN" "http://www.w3.org/Graphics/SVG/1.1/DTD/svg11.dtd" >
<svg xmlns="http://www.w3.org/2000/svg">
<metadata>Generated by IcoMoon</metadata>
<defs>
<font id="icomoon" horiz-adv-x="1024">
<font-face units-per-em="1024" ascent="960" descent="-64" />
<missing-glyph horiz-adv-x="1024" />
<glyph unicode="&#x20;" horiz-adv-x="512" d="" />
<glyph unicode="&#xe900;" glyph-name="file" d="M681.968 960.001h-442.184c-64.619 0-117.106-49.076-117.106-109.007v-402.993h-11.389c-25.996 0-47.288-19.584-47.288-43.887v-266.381c0-24.303 21.292-43.887 47.040-43.887h11.389v-48.841c0-60.164 52.735-109.005 117.106-109.005h603.357c64.619 0 117.107 48.841 117.107 109.005v657.108l-278.033 257.888zM183.83 383.118h93.586v-30.673h-58.182v-64.649h45.555v-30.673h-45.555v-88.482h-35.404v214.477zM843.141 2.774h-603.357c-25.006 0-45.307 18.876-45.307 42.231v48.841h473.129c25.997 0 47.287 19.823 47.287 43.887v266.62c0 24.299-21.291 44.122-47.287 44.122h-473.129v402.52c0 23.359 20.302 42.234 45.307 42.234l415.197 0.472v-142.982c0-41.762 36.395-75.502 81.207-75.502l150.528 0.472 1.732-630.682c0-23.356-20.301-42.231-45.308-42.231zM294.252 168.88v214.238h35.404v-214.238h-35.404zM448.743 199.314v-30.673h-93.338v214.238h35.156v-183.799h58.182v0.235zM548.024 292.75v-30.673h-48.525v-62.763h61.15v-30.673h-96.307v214.238h96.307v-30.673h-61.15v-59.691h48.525v0.235z" />
<glyph unicode="&#xe901;" glyph-name="help" d="M955.348 705.005c-45.787 78.439-107.893 140.545-186.331 186.328-78.456 45.781-164.101 68.667-257.001 68.667-92.891 0-178.562-22.886-257.004-68.667-78.446-45.777-140.552-107.882-186.338-186.328-45.788-78.452-68.674-164.122-68.674-257.006 0-92.889 22.893-178.545 68.667-257.001 45.783-78.438 107.889-140.544 186.335-186.331 78.451-45.78 164.115-68.667 257.004-68.667s178.562 22.886 257.011 68.667c78.438 45.773 140.544 107.893 186.324 186.331 45.773 78.449 68.659 164.117 68.659 257.001 0 92.894-22.886 178.567-68.652 257.006zM597.355 128c0-6.217-2.013-11.337-6.008-15.331-3.979-3.994-9.095-5.99-15.311-5.99h-128.015c-6.221 0-11.334 1.997-15.334 5.99-4.002 4.001-6.001 9.114-6.001 15.331v128.012c0 6.216 1.996 11.332 6.001 15.325 4 3.988 9.114 5.985 15.334 5.985h128.015c6.216 0 11.332-1.997 15.311-5.985 3.995-3.995 6.008-9.108 6.008-15.325v-128.012zM759.684 522.004c-5.566-16.445-11.776-29.898-18.666-40.338-6.89-10.445-16.783-21.113-29.677-31.997-12.867-10.888-23.096-18.671-30.671-23.346-7.542-4.658-18.442-11.005-32.649-18.996-14.671-8.436-26.772-19.441-36.322-33.004-9.558-13.553-14.335-24.549-14.335-32.985 0-6.235-2.013-11.346-6.011-15.344-3.986-3.995-9.1-5.991-15.318-5.991h-128.008c-6.221 0-11.334 1.996-15.334 5.991-4.005 3.998-5.996 9.109-5.996 15.344v24.002c0 29.777 11.659 57.678 34.995 83.67 23.337 26.003 49.004 45.225 77.008 57.671 21.319 9.775 36.436 19.778 45.324 29.999 8.901 10.22 13.345 23.79 13.345 40.67 0 14.671-8.341 27.78-25.011 39.344-16.67 11.551-35.656 17.328-56.996 17.328-23.118 0-42.222-5.336-57.337-16.007-14.672-10.66-33.777-31.108-57.335-61.326-4-5.338-9.558-8.011-16.67-8.011-5.334 0-9.558 1.33-12.665 3.991l-87.995 66.67c-10.22 8.002-11.998 17.33-5.338 28 56.896 94.667 139.338 142.002 247.334 142.002 38.676 0 76.459-9.114 113.347-27.339 36.884-18.215 67.667-43.997 92.342-77.335 24.646-33.326 37-69.554 37-108.666-0.037-19.554-2.823-37.546-8.36-53.996z" />
<glyph unicode="&#xe902;" glyph-name="minus" d="M1024 511.947v-127.894h-1024v127.894h1024z" />
<glyph unicode="&#xe903;" glyph-name="plus" d="M438.938-63.572h146.164v438.433h438.898v146.164h-438.898v438.548h-146.164v-438.548h-438.938v-146.164h438.938v-438.433z" />
<glyph unicode="&#xe904;" glyph-name="print" d="M890.897 712.687h-85.406v181.908c0 35.973-27.887 65.405-61.969 65.405h-463.041c-34.084 0-61.971-29.432-61.971-65.405v-181.908h-85.404c-49.964 0-90.439-42.718-90.439-95.45v-369.334c0-52.732 40.475-95.45 90.439-95.45h85.404v-151.049c0-35.972 27.887-65.404 61.971-65.404h463.041c34.082 0 61.969 29.431 61.969 65.404v151.249h85.406c49.963 0 90.436 42.718 90.436 95.249v369.334c0 52.733-40.474 95.45-90.436 95.45zM280.481 897.047h463.041c1.353 0 2.321-1.022 2.321-2.452v-181.908h-467.686v181.908c0 1.431 0.968 2.452 2.324 2.452zM775.667 463.945h-527.334c-16.461 0-29.824-14.106-29.824-31.479v-217.062h-85.404c-17.042 0-30.792 14.511-30.792 32.499v369.334c0 17.986 13.75 32.498 30.792 32.498h757.791c17.041 0 30.788-14.512 30.788-32.498v-369.334c0-17.988-13.747-32.499-30.788-32.499h-85.406v217.062c0 17.374-13.363 31.479-29.824 31.479zM278.157 400.99h467.686v-400.606c-0.388-0.819-1.161-1.434-2.129-1.434h-463.233c-1.356 0-2.324 1.024-2.324 2.453v399.586zM189.665 588.818c-7.746 0-15.105-3.27-20.915-9.198l-0.387-0.409c-5.422-6.132-8.521-13.899-8.521-22.074s3.099-15.942 8.715-22.074l0.387-0.409c5.81-5.724 13.169-8.992 20.915-8.992s15.105 3.268 21.109 9.196c5.423 5.723 8.715 14.103 8.715 22.279s-3.098 15.942-8.715 22.279c-5.616 5.927-13.556 9.402-21.303 9.402zM376.348 168.593h271.703c16.461 0 29.824 14.106 29.824 31.479 0 17.37-13.363 31.475-29.824 31.475h-271.703c-16.461 0-29.824-14.106-29.824-31.475 0-17.374 13.362-31.479 29.824-31.479zM376.348 53.914h271.703c16.461 0 29.824 14.101 29.824 31.475s-13.363 31.475-29.824 31.475h-271.703c-16.461 0-29.824-14.101-29.824-31.475s13.362-31.475 29.824-31.475zM376.348 283.277h271.703c16.461 0 29.824 14.101 29.824 31.475s-13.363 31.475-29.824 31.475h-271.703c-16.461 0-29.824-14.101-29.824-31.475s13.362-31.475 29.824-31.475z" />
<glyph unicode="&#xe905;" glyph-name="now_goods" d="M994.302 300.088v171.263c-0.040 37.15-14.134 72.767-39.189 99.036s-59.027 41.045-94.46 41.087h-103.949v108.985c0 4.129-1.566 8.089-4.351 11.009s-6.561 4.56-10.5 4.56h-593.993c-3.938 0-7.716-1.64-10.5-4.56s-4.349-6.88-4.349-11.009v-45.786h-43.261c-8.851 0-16.026-7.523-16.026-16.802s7.175-16.802 16.026-16.802h43.261v-60.489h-116.984c-8.851 0-16.026-7.523-16.026-16.802s7.175-16.802 16.026-16.802h116.984v-50.407h-14.416c-8.851 0-16.026-7.523-16.026-16.803s7.175-16.801 16.026-16.801h14.416v-178.44c0-4.131 1.565-8.090 4.349-11.009s6.562-4.561 10.5-4.561h14.85v-15.57c0-12.388 4.693-24.269 13.048-33.027s19.686-13.679 31.501-13.679h71.458c7.792-14.199 19.019-25.99 32.543-34.189s28.872-12.518 44.497-12.518c15.625 0 30.972 4.318 44.497 12.518s24.751 19.99 32.543 34.189h350.812c7.795-14.199 19.019-25.99 32.546-34.189 13.524-8.199 28.872-12.518 44.497-12.518s30.972 4.318 44.497 12.518c13.524 8.199 24.751 19.99 32.543 34.189h41.759c11.813 0 23.145 4.92 31.501 13.679 8.354 8.759 13.047 20.64 13.047 33.027v31.14c0 4.129-1.564 8.087-4.351 11.009-2.785 2.92-6.561 4.558-10.5 4.558h-14.848zM162.712 462.961h144.992c8.851 0 16.024 7.523 16.024 16.801 0 9.281-7.173 16.803-16.024 16.803h-144.992v50.407h93.707c8.851 0 16.027 7.523 16.027 16.802s-7.175 16.802-16.027 16.802h-93.707v60.489h167.43c8.851 0 16.027 7.523 16.027 16.802s-7.175 16.802-16.027 16.802h-167.43v30.217h564.292v-311.384h-564.292v69.457zM964.602 440.211h-133.649c-3.936 0-7.715 1.641-10.5 4.561s-4.348 6.881-4.348 11.009v124.553h44.549c27.558-0.033 53.979-11.526 73.468-31.957 19.486-20.432 30.448-48.133 30.48-77.026v-31.14zM786.403 455.781c0-12.388 4.695-24.269 13.050-33.027s19.686-13.679 31.499-13.679h133.649v-108.986h-26.909c-7.792 14.199-19.019 25.99-32.543 34.189s-28.872 12.518-44.497 12.518c-15.625 0-30.972-4.318-44.497-12.518-13.527-8.199-24.751-19.99-32.546-34.189h-26.906v280.247h29.699v-124.553zM727.004 300.088h-294.205c-7.792 14.199-19.019 25.99-32.543 34.189s-28.872 12.518-44.497 12.518c-15.625 0-30.972-4.318-44.497-12.518s-24.751-19.99-32.543-34.189h-116.008v62.276h564.292v-62.276zM196.761 242.372c-2.785 2.92-4.349 6.881-4.349 11.009v15.57h75.586c-1.783-10.295-1.783-20.845 0-31.14h-60.736c-3.938 0-7.716 1.641-10.5 4.561zM322.759 201.599c-9.768 6.844-17.381 16.571-21.879 27.95-4.496 11.379-5.672 23.902-3.379 35.982s7.95 23.178 16.257 31.887c8.307 8.709 18.891 14.641 30.413 17.043 11.524 2.403 23.467 1.169 34.319-3.544 10.854-4.713 20.133-12.695 26.659-22.938 6.526-10.24 10.010-22.281 10.010-34.599 0-16.516-6.259-32.356-17.398-44.037-11.139-11.679-26.247-18.239-42.002-18.239-11.748 0-23.233 3.652-33 10.495zM772.891 268.951c-1.783-10.295-1.783-20.845 0-31.14h-329.37c1.783 10.295 1.783 20.845 0 31.14h329.37zM827.653 201.599c-9.768 6.844-17.383 16.571-21.879 27.95s-5.672 23.902-3.379 35.982c2.293 12.081 7.95 23.178 16.257 31.887s18.891 14.641 30.413 17.043c11.524 2.403 23.464 1.169 34.319-3.544s20.13-12.695 26.659-22.938c6.526-10.24 10.010-22.281 10.010-34.599 0-16.516-6.259-32.356-17.398-44.037-11.139-11.679-26.247-18.239-42.002-18.239-11.748 0-23.233 3.652-33 10.495zM989.952 242.372c-2.785-2.92-6.561-4.561-10.5-4.561h-31.037c1.783 10.295 1.783 20.845 0 31.14h45.887v-15.57c0-4.129-1.566-8.090-4.351-11.009z" />
<glyph unicode="&#xe906;" glyph-name="all_goods" d="M489.243 781.997v-131.213c-0.005-2.157-0.567-4.273-1.625-6.124-1.060-1.85-2.58-3.363-4.396-4.378-1.814-1.015-3.859-1.497-5.914-1.39-2.055 0.105-4.046 0.794-5.757 1.991l-27.819 19.442-27.819-19.467c-1.713-1.197-3.705-1.886-5.762-1.991-2.059-0.105-4.105 0.378-5.921 1.397s-3.334 2.535-4.392 4.387c-1.058 1.852-1.618 3.973-1.618 6.133v131.213h-66.844c-7.070 0-12.8-6.008-12.8-13.419v-235.588c0-7.411 5.73-13.419 12.8-13.419h224.711c7.070 0 12.8 6.007 12.8 13.419v235.588c0 7.411-5.73 13.419-12.8 13.419h-66.844zM591.643 532.99c0-4.731-0.84-9.257-2.373-13.419h160.24c19.636 0 35.556-16.691 35.556-37.278v-235.586c0-4.731-0.84-9.257-2.373-13.421h59.262c3.017 0 5.912-1.256 8.046-3.493 2.132-2.237 3.331-5.27 3.331-8.435v-71.571c0-3.163-1.199-6.196-3.331-8.435-2.134-2.237-5.029-3.493-8.046-3.493h-45.511v-35.785c0-3.163-1.199-6.199-3.331-8.435-2.134-2.237-5.029-3.493-8.046-3.493h-91.022c-3.017 0-5.912 1.256-8.046 3.493-2.132 2.237-3.331 5.272-3.331 8.435v35.785h-329.956v-35.785c0-3.163-1.199-6.199-3.331-8.435-2.134-2.237-5.029-3.493-8.046-3.493h-102.4c-3.018 0-5.912 1.256-8.045 3.493s-3.333 5.272-3.333 8.435v35.785h-45.511c-3.018 0-5.912 1.256-8.045 3.493-2.134 2.239-3.333 5.272-3.333 8.435v71.571c0 3.165 1.199 6.199 3.333 8.435s5.028 3.493 8.045 3.493h36.507c-1.533 4.164-2.374 8.69-2.374 13.421v235.586c0 20.587 15.919 37.278 35.556 37.278h46.462c-1.534 4.162-2.373 8.688-2.373 13.419v235.588c0 20.587 15.92 37.276 35.556 37.276h224.711c19.636 0 35.556-16.689 35.556-37.276v-235.588zM251.732 233.286h224.711c7.070 0 12.8 6.010 12.8 13.421v235.586c0 7.411-5.73 13.421-12.8 13.421h-66.844v-131.215c-0.005-2.157-0.567-4.273-1.625-6.121-1.060-1.85-2.58-3.363-4.396-4.378-1.814-1.017-3.859-1.497-5.914-1.393-2.055 0.107-4.046 0.794-5.757 1.993l-27.819 19.442-27.819-19.467c-1.713-1.199-3.705-1.886-5.762-1.991-2.059-0.105-4.105 0.378-5.921 1.397-1.816 1.017-3.334 2.535-4.392 4.387s-1.618 3.969-1.618 6.128v131.218h-66.844c-7.069 0-12.8-6.010-12.8-13.421v-235.586c0-7.411 5.731-13.421 12.8-13.421zM524.799 233.286h224.711c7.070 0 12.8 6.010 12.8 13.421v235.586c0 7.411-5.73 13.421-12.8 13.421h-66.844v-131.215c-0.005-2.157-0.567-4.273-1.625-6.121-1.060-1.85-2.58-3.363-4.396-4.378-1.814-1.017-3.859-1.497-5.914-1.393-2.055 0.107-4.046 0.794-5.757 1.993l-27.819 19.442-27.819-19.467c-1.713-1.199-3.705-1.886-5.762-1.991-2.059-0.105-4.105 0.378-5.921 1.397-1.816 1.017-3.334 2.535-4.392 4.387s-1.618 3.969-1.618 6.128v131.218h-66.844c-7.070 0-12.8-6.010-12.8-13.421v-235.586c0-7.411 5.73-13.421 12.8-13.421zM749.51 209.429h-556.089v-47.714h637.156v47.714h-81.067zM341.332 386.795l16.441 11.487c1.871 1.308 4.066 2.005 6.315 2.005s4.444-0.696 6.315-2.005l16.441-11.487v108.919h-45.511v-108.919zM466.488 781.997h-45.511v-108.919l16.441 11.487c1.871 1.308 4.066 2.007 6.315 2.007s4.444-0.699 6.315-2.007l16.441-11.487v108.919zM614.399 495.714v-108.919l16.441 11.487c1.871 1.308 4.066 2.005 6.315 2.005s4.444-0.696 6.315-2.005l16.441-11.487v108.919h-45.511zM250.31 114.001h79.644v23.857h-79.644v-23.857zM705.421 114.001h68.267v23.857h-68.267v-23.857z" />
<glyph unicode="&#xe907;" glyph-name="cart_later" d="M273.018 285.785h567.923c64.399 0 116.936 52.188 116.936 116.163v93.012c41.093 45.665 66.089 105.851 66.089 171.929 0 142.468-116.721 258.21-259.917 258.21-123.075 0-226.452-85.438-253.142-199.708l-297.413 40.825v99.749c0 1.052 0 2.104-0.212 2.946 0 0.21 0 0.421-0.212 0.842 0 0.631-0.212 1.263-0.212 1.894-0.211 0.631-0.211 1.052-0.423 1.683 0 0.421-0.212 0.631-0.212 1.052-0.212 0.631-0.423 1.263-0.635 1.894 0 0.21-0.212 0.631-0.212 0.842-0.211 0.631-0.423 1.053-0.847 1.684-0.211 0.21-0.211 0.631-0.423 0.842-0.212 0.421-0.424 0.842-0.847 1.263-0.212 0.421-0.424 0.631-0.635 1.052s-0.424 0.631-0.636 1.052c-0.211 0.421-0.635 0.842-0.847 1.263l-2.542 2.525c-0.424 0.421-0.847 0.842-1.483 1.263-0.212 0.21-0.636 0.421-0.847 0.631-0.424 0.421-0.847 0.631-1.271 1.052-0.635 0.421-1.271 0.842-1.695 1.052-0.211 0.21-0.423 0.21-0.635 0.421-0.847 0.421-1.907 0.842-2.754 1.263l-156.121 65.236c-14.616 6.103-31.351-0.631-37.494-15.152s0.635-31.145 15.252-37.248l138.539-58.081v-622.481c0-58.921 44.485-107.745 101.892-115.108-10.38-17.26-16.523-37.458-16.523-58.926 0-63.34 51.899-114.688 115.449-114.688s115.449 51.558 115.449 114.688c0 21.043-5.72 41.037-15.887 57.871h257.166c-10.168-17.044-15.887-36.828-15.887-57.871 0-63.34 51.896-114.688 115.446-114.688s115.451 51.558 115.451 114.688c0 63.135-51.901 114.688-115.451 114.688h-540.172c-33.046 0-59.737 26.726-59.737 59.346v77.020c17.37-10.102 37.918-15.99 59.737-15.99zM763.834 866.386c110.577 0 200.607-89.437 200.607-199.287s-89.815-199.497-200.607-199.497c-110.577 0-200.607 89.437-200.607 199.286s90.030 199.497 200.607 199.497zM213.282 708.977l290.846-39.773c0-0.842 0-1.473 0-2.315 0-142.468 116.72-258.209 259.921-258.209 50.202 0 97.019 14.1 136.632 38.723v-45.036c0-33.039-26.906-59.556-59.74-59.556h-567.923c-33.046 0-59.737 26.726-59.737 59.346v306.82zM813.405 108.802c31.985 0 58.25-25.882 58.25-57.871 0-31.985-26.266-57.871-58.25-57.871-31.99 0-58.255 26.097-58.255 57.871 0 31.78 26.266 57.871 58.255 57.871zM357.116 108.802c31.987 0 58.254-25.882 58.254-57.871 0-31.985-26.267-57.871-58.254-57.871s-58.254 26.097-58.254 57.871c0 31.78 26.268 57.871 58.254 57.871zM671.894 643.537h63.759v-63.343c0-15.993 13.133-29.041 29.235-29.041 16.097 0 29.23 13.047 29.23 29.041v63.343h63.764c16.097 0 29.23 13.047 29.23 29.041s-13.133 29.041-29.23 29.041h-63.764v63.132c0 15.993-13.133 29.041-29.23 29.041-16.102 0-29.235-13.047-29.235-29.041v-63.342h-63.759c-16.102 0-29.235-13.047-29.235-29.041s13.133-28.83 29.235-28.83z" />
<glyph unicode="&#xe908;" glyph-name="chevron" d="M787.558 469.019l-409.82 424.933c-2.551 2.856-5.67 5.143-9.157 6.719s-7.265 2.406-11.092 2.441c-7.565 0-14.334-3.072-20.192-9.159l-43.968-45.562c-2.79-2.742-5.006-6.007-6.518-9.609-1.513-3.607-2.291-7.475-2.291-11.383s0.779-7.777 2.291-11.383c1.513-3.607 3.728-6.872 6.518-9.609l345.602-358.377-345.602-358.492c-2.811-2.726-5.045-5.988-6.571-9.594s-2.313-7.481-2.313-11.397c0-3.916 0.786-7.791 2.313-11.397s3.76-6.868 6.571-9.594l43.968-45.565c2.543-2.844 5.654-5.123 9.132-6.691s7.246-2.389 11.061-2.411c3.823 0.021 7.6 0.842 11.087 2.409s6.608 3.847 9.162 6.692l409.82 425.047c2.81 2.726 5.046 5.989 6.576 9.594 1.525 3.606 2.31 7.481 2.31 11.397s-0.785 7.791-2.31 11.397c-1.53 3.606-3.766 6.868-6.576 9.594z" />
<glyph unicode="&#xe909;" glyph-name="chevron_down" d="M533.019 172.442l424.933 409.82c2.856 2.551 5.143 5.67 6.719 9.157s2.406 7.265 2.441 11.092c0 7.565-3.072 14.334-9.159 20.192l-45.562 43.968c-2.742 2.79-6.007 5.006-9.609 6.518-3.607 1.513-7.475 2.291-11.383 2.291s-7.777-0.779-11.383-2.291c-3.607-1.513-6.872-3.728-9.609-6.518l-358.377-345.602-358.492 345.602c-2.726 2.811-5.988 5.045-9.594 6.571s-7.481 2.313-11.397 2.313c-3.916 0-7.791-0.786-11.397-2.313s-6.868-3.76-9.594-6.571l-45.565-43.968c-2.844-2.543-5.123-5.654-6.691-9.132s-2.389-7.246-2.411-11.061c0.021-3.823 0.842-7.6 2.409-11.087s3.847-6.608 6.692-9.162l425.047-409.82c2.726-2.81 5.989-5.046 9.594-6.576 3.606-1.525 7.481-2.31 11.397-2.31s7.791 0.785 11.397 2.31c3.606 1.53 6.868 3.766 9.594 6.576z" />
<glyph unicode="&#xe90a;" glyph-name="close" d="M892.054 740.481l-298.347-295.113 295.149-291.95-74.586-73.779-295.149 291.951-302.268-298.995-84.907 83.985 302.268 298.995-295.149 291.949 74.586 73.778 295.149-291.95 298.347 295.113 84.907-83.985z" />
<glyph unicode="&#xe90b;" glyph-name="delete" d="M868.429 639.999v-575.998c0-70.72-62.882-128-140.471-128h-431.916c-77.588 0-140.472 57.28-140.472 128v575.998c-38.794 0-70.236 28.672-70.236 63.936v64.064c0 35.328 31.442 64 70.236 64h180.841v63.936c0 35.392 31.442 64.064 70.236 64.064h210.706c38.797 0 70.238-28.672 70.238-64.064v-63.936h180.838c38.797 0 70.238-28.672 70.238-64v-64.064c0-35.264-31.441-63.936-70.238-63.936zM225.806 64.002c0-35.392 31.442-64 70.236-64h431.916c38.797 0 70.238 28.608 70.238 64v575.998h-572.39v-575.998zM617.353 863.999c0 17.664-15.753 31.936-35.115 31.936h-140.474c-19.364 0-35.118-14.272-35.118-31.936v-32h210.706v32zM833.315 767.999h-642.627c-19.43 0-35.118-14.336-35.118-32s15.689-32.064 35.118-32.064h642.627c19.362 0 35.115 14.4 35.115 32.064s-15.753 32-35.115 32zM618.667 103.362c-19.362 0-35.119 14.4-35.119 32.064v383.936c0 17.726 15.689 32.062 35.119 32.062 19.362 0 35.119-14.4 35.119-32.062v-383.936c0-17.664-15.757-32.064-35.119-32.064zM405.334 103.362c-19.364 0-35.118 14.4-35.118 32.064v383.936c0 17.726 15.754 32.062 35.118 32.062s35.118-14.4 35.118-32.062v-383.936c0-17.664-15.754-32.064-35.118-32.064z" />
<glyph unicode="&#xe90c;" glyph-name="loyalty" d="M372.364 820.363c-23.235 0-46.545-20.748-46.545-52.021s23.31-52.022 46.545-52.022c23.235 0 46.545 20.748 46.545 52.022 0 19.16-9.16 35.041-21.689 43.955l-3.092 2.017c-6.572 3.917-13.939 6.049-21.765 6.049zM449.263 889.494l62.737-40.934 62.737 40.934c1.978 1.357 3.994 2.664 6.043 3.92 20.694 12.675 44.958 20.040 70.856 20.040 79.589 0 139.636-67.511 139.636-145.112 0-18.136-3.28-35.721-9.322-52.022h55.909c77.147 0 139.594-62.544 139.594-139.636v-57.497c0-34.458-18.721-64.542-46.545-80.637v-316.369c0-77.119-62.518-139.636-139.636-139.636h-558.545c-77.118 0-139.636 62.516-139.636 139.636v316.369c-27.825 16.095-46.545 46.18-46.545 80.637v57.497c0 77.092 62.447 139.636 139.594 139.636h55.909c-6.043 16.301-9.322 33.886-9.322 52.022 0 77.601 60.047 145.112 139.636 145.112 25.898 0 50.163-7.365 70.857-20.040 2.050-1.256 4.064-2.563 6.043-3.92zM651.636 716.32c23.235 0 46.545 20.748 46.545 52.022s-23.31 52.021-46.545 52.021c-7.826 0-15.192-2.132-21.765-6.049l-3.091-2.016c-12.53-8.914-21.69-24.797-21.69-43.956 0-31.274 23.31-52.022 46.545-52.022zM837.86 623.229h-651.72c-25.679 0-46.504-20.811-46.504-46.545v-57.497h744.727v57.497c0 25.734-20.824 46.545-46.504 46.545zM837.818 426.096h-279.273v-350.46h232.727c25.706 0 46.545 20.839 46.545 46.545v303.915zM465.455 75.635v350.46h-279.273v-303.915c0-25.706 20.839-46.545 46.545-46.545h232.727z" />
<glyph unicode="&#xe90d;" glyph-name="loyalty_vip" d="M973.85 667.787l-155.151 193.347c-2.947 3.658-7.308 5.784-11.917 5.784h-589.566c-4.607 0-8.967-2.111-11.916-5.784l-155.148-193.347c-3.864-4.802-4.702-11.487-2.142-17.143s8.036-9.28 14.056-9.28h899.859c6.023 0 11.497 3.626 14.057 9.28 2.551 5.639 1.731 12.326-2.132 17.143zM95.194 673.588l129.285 161.122h575.028l129.287-161.122h-833.6zM526.315 856.977c-2.405 6.025-8.067 9.941-14.337 9.941h-294.782c-5.555 0-10.675-3.078-13.451-8.089s-2.762-11.149 0.047-16.144l108.604-193.347c2.419-4.302 6.625-7.218 11.403-7.862 0.667-0.081 1.335-0.128 1.986-0.128 4.097 0 8.053 1.675 10.986 4.721l186.178 193.347c4.437 4.607 5.771 11.537 3.366 17.562zM329.043 683.625l-84.851 151.068h230.318l-145.467-151.068zM975.815 664.671c-2.607 5.495-8.006 8.975-13.908 8.975h-899.859c-5.896 0-11.28-3.48-13.901-8.975-2.607-5.494-2.002-12.052 1.582-16.917l449.933-612.266c2.932-3.995 7.494-6.348 12.334-6.348s9.402 2.352 12.304 6.348l449.933 612.266c3.584 4.866 4.189 11.423 1.583 16.917zM511.995 71.804l-418.576 569.6h837.154l-418.578-569.6zM526.828 50.116l-186.179 612.266c-2.047 6.703-8.022 11.263-14.801 11.263h-263.754c-5.896 0-11.28-3.48-13.901-8.975-2.607-5.494-2.002-12.052 1.582-16.917l449.933-612.266c3.009-4.109 7.618-6.348 12.334-6.348 2.42 0 4.871 0.579 7.136 1.837 6.69 3.591 9.914 11.68 7.651 19.14zM93.45 641.404h221.026l156.017-513.080-377.042 513.080zM820.212 858.829c-2.762 5.011-7.897 8.089-13.451 8.089h-294.784c-6.267 0-11.931-3.916-14.336-9.941s-1.071-12.955 3.367-17.562l186.179-193.347c2.916-3.046 6.872-4.721 10.969-4.721 0.667 0 1.334 0.049 2.001 0.128 4.763 0.644 8.983 3.544 11.404 7.862l108.604 193.347c2.793 4.994 2.809 11.133 0.047 16.144zM694.898 683.625l-145.469 151.068h230.318l-84.85-151.068zM975.852 664.58c-2.607 5.494-8.006 8.974-13.898 8.974h-263.755c-6.78 0-12.768-4.56-14.801-11.263l-186.178-612.266c-2.266-7.443 0.962-15.531 7.648-19.141 2.266-1.224 4.717-1.802 7.136-1.802 4.702 0 9.309 2.236 12.335 6.312l449.932 612.266c3.584 4.87 4.189 11.427 1.583 16.92zM553.539 128.269l156.017 513.080h221.026l-377.042-513.080z" />
<glyph unicode="&#xe90e;" glyph-name="later_goods" d="M358.386 422.402c-122.535 0-221.868 99.332-221.868 221.866s99.333 221.867 221.868 221.867c122.533 0 221.865-99.333 221.865-221.867s-99.332-221.866-221.865-221.866zM358.417 456.542c103.68 0 187.733 84.053 187.733 187.735s-84.053 187.733-187.733 187.733c-103.684 0-187.735-84.051-187.735-187.733s84.051-187.735 187.735-187.735zM369.053 772.268c0 9.426-7.641 17.067-17.067 17.067s-17.067-7.641-17.067-17.067v-135.667c-0.014-0.29-0.022-0.582-0.022-0.876 0-9.426 7.641-17.067 17.067-17.067h85.333c9.426 0 17.067 7.641 17.067 17.067s-7.641 17.067-17.067 17.067h-68.243v119.477zM989.866 183.464h17.067c4.526 0 8.869-1.799 12.070-5 3.198-3.198 4.997-7.541 4.997-12.067v-34.131c0-13.581-5.393-26.604-14.997-36.205-9.6-9.604-22.624-14.997-36.202-14.997h-47.992c-8.958-15.563-21.86-28.489-37.402-37.477-15.546-8.988-33.184-13.722-51.14-13.722s-35.595 4.734-51.138 13.722c-15.546 8.988-28.447 21.915-37.404 37.477h-403.182c-8.958-15.563-21.856-28.489-37.402-37.477s-33.184-13.722-51.138-13.722c-17.957 0-35.596 4.734-51.14 13.722s-28.445 21.915-37.403 37.477h-82.125c-13.579 0-26.602 5.393-36.204 14.997-9.602 9.6-14.996 22.624-14.996 36.205v17.064h-17.067c-4.527 0-8.868 1.799-12.068 5s-4.999 7.541-4.999 12.067v477.867c0 4.527 1.798 8.867 4.999 12.068s7.541 4.998 12.068 4.998h85.333c4.527 0 8.867-1.798 12.068-4.998s4.999-7.541 4.999-12.068c0-4.526-1.798-8.867-4.999-12.068s-7.541-4.999-12.068-4.999h-68.266v-341.332h648.533v341.332h-68.266c-4.528 0-8.869 1.798-12.070 4.999-3.198 3.201-4.997 7.541-4.997 12.068s1.799 8.867 4.997 12.068c3.201 3.201 7.541 4.998 12.070 4.998h85.333c4.526 0 8.866-1.798 12.067-4.998s4.997-7.541 4.997-12.068v-119.467h119.468c40.725-0.044 79.765-16.241 108.561-45.037s44.994-67.839 45.037-108.561v-187.733zM802.136 337.063h153.599v34.135c-0.036 31.673-12.635 62.038-35.033 84.435-22.394 22.397-52.762 34.996-84.435 35.033h-51.198v-136.535c0-4.526 1.796-8.866 4.997-12.067s7.541-5 12.070-5zM750.934 354.13v136.535h-34.135v-307.201h30.925c8.958 15.563 21.86 28.489 37.404 37.477 15.542 8.988 33.181 13.722 51.138 13.722s35.595-4.734 51.14-13.722c15.542-8.988 28.444-21.915 37.402-37.477h30.925v119.468h-153.599c-13.581 0-26.604 5.393-36.205 14.994-9.604 9.604-14.997 22.627-14.997 36.205zM682.668 183.464v68.266h-648.533v-68.266h133.325c8.958 15.563 21.858 28.489 37.403 37.477s33.183 13.722 51.14 13.722c17.954 0 35.592-4.734 51.138-13.722s28.444-21.915 37.402-37.477h338.125zM73.267 120.195c3.201-3.201 7.541-4.997 12.068-4.997h69.802c-2.048 11.286-2.048 22.845 0 34.131h-86.869v-17.064c0-4.528 1.798-8.869 4.999-12.070zM218.075 75.501c11.226-7.5 24.425-11.505 37.928-11.505 18.104 0 35.467 7.192 48.269 19.997 12.805 12.802 19.997 30.165 19.997 48.272 0 13.5-4.005 26.698-11.505 37.926-7.503 11.227-18.164 19.978-30.639 25.144-12.472 5.166-26.199 6.519-39.442 3.883-13.243-2.633-25.406-9.135-34.954-18.683-9.547-9.545-16.049-21.709-18.683-34.952s-1.282-26.97 3.885-39.442c5.167-12.475 13.917-23.137 25.144-30.639zM735.402 149.33h-378.538c2.048-11.286 2.048-22.845 0-34.131h378.538c-2.048 11.286-2.048 22.845 0 34.131zM798.341 75.501c11.225-7.5 24.425-11.505 37.926-11.505 18.107 0 35.47 7.192 48.272 19.997 12.802 12.802 19.994 30.165 19.994 48.272 0 13.5-4.002 26.698-11.505 37.926-7.5 11.227-18.162 19.978-30.637 25.144s-26.199 6.519-39.442 3.883c-13.243-2.633-25.407-9.135-34.954-18.683-9.548-9.545-16.048-21.709-18.683-34.952-2.633-13.243-1.28-26.97 3.886-39.442 5.166-12.475 13.916-23.137 25.144-30.639zM984.869 120.195c3.201 3.201 4.997 7.541 4.997 12.070v17.064h-52.734c2.048-11.286 2.048-22.845 0-34.131h35.67c4.526 0 8.866 1.796 12.067 4.997z" />
<glyph unicode="&#xe90f;" glyph-name="check" d="M224.532 510.76l-104.532-100.391 287.331-275.969 496.669 533.222-111.068 93.978-392-420.275-176.4 169.435z" />
<glyph unicode="&#xe910;" glyph-name="clock" d="M511.998 959.793c282.669 0 511.795-229.124 511.795-511.791 0-282.669-229.126-511.795-511.795-511.795-282.667 0-511.791 229.126-511.791 511.795 0 282.667 229.124 511.791 511.791 511.791zM816.253 751.838c-77.619 77.62-185.541 125.769-304.255 125.769-118.711 0-226.632-48.149-304.252-125.769s-125.769-185.54-125.769-304.254c0-118.71 48.149-226.632 125.769-304.251s185.541-125.768 304.252-125.768c118.714 0 226.218 48.148 304.255 125.768 77.619 77.619 125.768 185.541 125.768 304.251 0 118.714-48.148 226.22-125.768 304.254zM737.385 491.141h-184.295v263.574c0 11.622-4.153 21.584-11.624 29.055s-17.433 11.622-29.053 11.622c-12.038 0-22-3.736-29.471-11.622-7.475-7.471-11.624-17.433-11.624-29.055v-304.669c0-12.034 3.736-22 11.624-29.471 7.471-7.471 17.433-11.62 29.471-11.62h225.386c11.62 0 21.582 4.149 29.053 11.62 7.475 7.471 11.624 17.437 11.624 29.471 0 11.624-3.736 21.586-11.624 29.057-7.471 7.471-17.433 11.62-29.053 11.62l-0.414 0.418z" />
<glyph unicode="&#xe911;" glyph-name="datepicker" d="M260.463 163.192c-10.179 0-19.941 4.043-27.138 11.239s-11.241 16.962-11.241 27.14c0 10.179 4.044 19.939 11.241 27.136 7.197 7.201 16.959 11.244 27.138 11.244s19.941-4.043 27.138-11.244c7.197-7.197 11.241-16.957 11.241-27.136s-4.044-19.943-11.241-27.14c-7.197-7.197-16.959-11.239-27.138-11.239zM260.463 497.262c-10.179 0-19.941 4.043-27.138 11.239s-11.241 16.962-11.241 27.139c0 10.179 4.044 19.941 11.241 27.138s16.959 11.241 27.138 11.241c10.179 0 19.941-4.044 27.138-11.241s11.241-16.96 11.241-27.138c0-10.178-4.044-19.943-11.241-27.139s-16.959-11.239-27.138-11.239zM260.463 330.227c-10.179 0-19.941 4.043-27.138 11.239s-11.241 16.962-11.241 27.14c0 10.179 4.044 19.939 11.241 27.136 7.197 7.201 16.959 11.244 27.138 11.244s19.941-4.043 27.138-11.244c7.197-7.197 11.241-16.957 11.241-27.136s-4.044-19.943-11.241-27.14c-7.197-7.197-16.959-11.239-27.138-11.239zM427.498 163.192c-10.179 0-19.941 4.043-27.138 11.239s-11.241 16.962-11.241 27.14c0 10.179 4.044 19.939 11.241 27.136 7.197 7.201 16.959 11.244 27.138 11.244s19.939-4.043 27.14-11.244c7.197-7.197 11.239-16.957 11.239-27.136s-4.043-19.943-11.239-27.14c-7.201-7.197-16.962-11.239-27.14-11.239zM427.498 497.262c-10.179 0-19.941 4.043-27.138 11.239s-11.241 16.962-11.241 27.139c0 10.179 4.044 19.941 11.241 27.138s16.959 11.241 27.138 11.241c10.179 0 19.939-4.044 27.14-11.241 7.197-7.198 11.239-16.96 11.239-27.138s-4.043-19.943-11.239-27.139c-7.201-7.197-16.962-11.239-27.14-11.239zM427.498 330.227c-10.179 0-19.941 4.043-27.138 11.239s-11.241 16.962-11.241 27.14c0 10.179 4.044 19.939 11.241 27.136 7.197 7.201 16.959 11.244 27.138 11.244s19.939-4.043 27.14-11.244c7.197-7.197 11.239-16.957 11.239-27.136s-4.043-19.943-11.239-27.14c-7.201-7.197-16.962-11.239-27.14-11.239zM965.098 451.182c-5.042 0-10.039 0.991-14.696 2.925-4.661 1.929-8.892 4.764-12.456 8.331s-6.39 7.803-8.319 12.464c-1.925 4.661-2.912 9.654-2.908 14.701v218.889c-0.033 20.358-8.135 39.874-22.532 54.27-14.393 14.395-33.911 22.497-54.268 22.53h-49.93v-38.42c-0.324-9.967-4.514-19.417-11.682-26.353-7.164-6.935-16.744-10.813-26.718-10.813s-19.554 3.878-26.718 10.813c-7.168 6.936-11.358 16.386-11.682 26.353v38.42h-174.735v-38.42c0-10.184-4.047-19.952-11.248-27.153s-16.97-11.247-27.152-11.247c-10.183 0-19.952 4.046-27.152 11.247s-11.248 16.969-11.248 27.153v38.42h-172.769v-38.42c-0.326-9.967-4.514-19.417-11.68-26.353s-16.748-10.813-26.72-10.813c-9.973 0-19.554 3.878-26.72 10.813s-11.354 16.386-11.68 26.353v38.42h-48.005c-20.362-0.022-39.884-8.12-54.282-22.518s-22.496-33.92-22.518-54.282v-599.039c0-42.353 34.447-76.8 76.8-76.8h293.724c9.966-0.328 19.419-4.514 26.354-11.682 6.935-7.164 10.813-16.749 10.813-26.718 0-9.974-3.879-19.554-10.813-26.722-6.935-7.164-16.388-11.354-26.354-11.678h-293.724c-40.724 0.041-79.768 16.241-108.564 45.036s-44.993 67.838-45.036 108.564v599.039c0.054 40.72 16.254 79.758 45.048 108.552s67.831 44.994 108.552 45.048h48.005v38.379c0 10.184 4.046 19.952 11.247 27.153s16.968 11.247 27.153 11.247c10.184 0 19.952-4.046 27.153-11.247s11.247-16.969 11.247-27.153v-38.379h172.769v38.379c0.324 9.967 4.514 19.417 11.682 26.353 7.164 6.936 16.744 10.813 26.718 10.813s19.554-3.878 26.718-10.813c7.168-6.936 11.358-16.386 11.682-26.353v-38.379h174.735v38.379c-0.168 5.148 0.7 10.278 2.556 15.084 1.851 4.806 4.653 9.19 8.237 12.891s7.873 6.644 12.616 8.654c4.743 2.010 9.839 3.046 14.991 3.046s10.248-1.036 14.991-3.046c4.743-2.010 9.032-4.953 12.616-8.654s6.386-8.085 8.237-12.891c1.855-4.806 2.724-9.935 2.556-15.084v-38.379h49.93c40.722-0.054 79.757-16.255 108.552-45.048s44.995-67.831 45.048-108.552v-218.889c0-21.217-17.203-38.42-38.42-38.42zM556.153 535.682c0 10.184 4.047 19.951 11.248 27.153s16.97 11.247 27.152 11.247c10.183 0 19.952-4.046 27.152-11.247s11.248-16.968 11.248-27.153c-0.324-9.969-4.514-19.418-11.682-26.353-7.164-6.935-16.744-10.813-26.718-10.813s-19.554 3.879-26.718 10.813c-7.168 6.935-11.358 16.384-11.682 26.353zM723.188 535.682c0 10.179 4.043 19.941 11.239 27.138 7.201 7.197 16.962 11.241 27.14 11.241s19.939-4.044 27.14-11.241c7.197-7.197 11.239-16.96 11.239-27.138s-4.043-19.943-11.239-27.139c-7.201-7.197-16.962-11.239-27.14-11.239s-19.939 4.043-27.14 11.239c-7.197 7.197-11.239 16.962-11.239 27.139zM771.193 420.503c61.596-0.086 120.644-24.596 164.196-68.157s68.051-102.613 68.129-164.209c-0.078-61.592-24.58-120.635-68.133-164.18-43.553-43.549-102.605-68.039-164.192-68.104-61.587 0.066-120.639 24.556-164.192 68.104-43.553 43.545-68.055 102.588-68.133 164.18 0.066 61.6 24.56 120.66 68.116 164.221 43.553 43.561 102.609 68.067 164.209 68.145zM771.193 32.653c41.226 0.041 80.753 16.437 109.912 45.584 29.155 29.147 45.56 68.674 45.613 109.9-0.045 41.239-16.441 80.773-45.597 109.937-29.155 29.168-68.69 45.576-109.928 45.629-41.239-0.053-80.773-16.462-109.928-45.629-29.155-29.164-45.552-68.698-45.597-109.937 0.045-41.23 16.445-80.761 45.601-109.912 29.159-29.151 68.694-45.539 109.924-45.572zM771.193 305.282c21.217 0 38.38-17.203 38.38-38.38v-40.346h17.285c9.966-0.328 19.419-4.514 26.354-11.682 6.935-7.164 10.813-16.749 10.813-26.718 0-9.974-3.879-19.554-10.813-26.722-6.935-7.164-16.388-11.354-26.354-11.678h-55.665c-10.183 0-19.948 4.043-27.152 11.239s-11.256 16.957-11.268 27.14v78.766c0 21.176 17.203 38.38 38.42 38.38z" />
<glyph unicode="&#xe912;" glyph-name="placemark" d="M723.162 121.695c-96.717-106.977-192.175-172.37-196.175-175.114-4.422-2.949-9.616-4.526-14.931-4.536s-10.514 1.551-14.946 4.485c-4.048 2.698-99.509 67.61-196.271 174.3-129.627 142.879-198.15 292.598-198.15 432.873 0 220.702 183.597 400.252 409.311 400.252 225.667 0 409.311-179.55 409.311-400.252 0-139.359-68.521-288.792-198.149-432.008zM512.001 902.634c-196.801 0-356.882-156.515-356.882-348.931 0-274.338 287.395-503.038 356.834-554.258 62.438 46.73 120.268 99.318 172.707 157.041 84.040 93.056 184.177 237.522 184.177 397.218 0 192.416-160.082 348.931-356.836 348.931zM512.001 403.5c-91.943 0-166.731 73.15-166.731 163.022 0 89.919 74.788 163.069 166.731 163.069s166.73-73.15 166.73-163.069c0-89.871-74.787-163.022-166.73-163.022zM512.001 678.318c-63.030 0-114.302-50.164-114.302-111.797 0-61.585 51.272-111.7 114.302-111.7 62.982 0 114.255 50.116 114.255 111.7 0 61.633-51.273 111.797-114.255 111.797z" />
<glyph unicode="&#xe913;" glyph-name="online" d="M963.068 131.993h-310.135v-4.062c0-42.701 34.065-77.449 75.913-77.449h68.13c12.493 0 22.665-10.377 22.665-23.108 0.044-6.065-2.314-11.902-6.56-16.234-4.25-4.332-10.039-6.803-16.104-6.874h-569.958c-6.065 0.072-11.856 2.543-16.103 6.874s-6.607 10.168-6.561 16.234c0 12.732 10.172 23.108 22.665 23.108h68.096c41.882 0 75.947 34.748 75.947 77.449v4.062h-310.135c-32.222 0-60.928 26.761-60.928 47.855v635.426c0 45.739 24.474 76.459 60.928 76.459h902.144c16.828 0 32.085-7.1 43.008-19.968 11.742-13.824 17.92-33.382 17.92-56.491v-635.426c0-21.094-28.706-47.855-60.928-47.855zM634.432 50.482l-1.263 1.638c-16.643 21.76-25.62 48.415-25.532 75.81v4.062h-191.283v-4.062c0-27.682-8.841-53.897-25.532-75.81l-1.263-1.638h244.873zM45.291 194.184c0-8.806 7.031-15.974 15.633-15.974h902.144c8.602 0 15.633 7.168 15.633 15.974v113.493h-933.41v-113.493zM978.701 829.576c0.038 4.186-1.591 8.215-4.519 11.203-2.932 2.988-6.929 4.692-11.114 4.737h-902.144c-4.185-0.045-8.182-1.749-11.113-4.737s-4.556-7.017-4.52-11.203v-475.682h933.41v475.682zM541.419 727.722c2.109 2.008 4.601 3.569 7.328 4.588s5.635 1.475 8.544 1.341c2.908-0.134 5.758-0.855 8.38-2.121 2.625-1.265 4.963-3.048 6.878-5.242 3.942-4.434 6.001-10.229 5.741-16.156-0.263-5.927-2.823-11.519-7.141-15.588l-239.002-222.857c-2.12-1.987-4.616-3.526-7.341-4.533s-5.624-1.454-8.527-1.321c-2.902 0.133-5.747 0.847-8.368 2.099s-4.965 3.014-6.894 5.188c-3.959 4.434-6.018 10.243-5.734 16.179 0.224 5.939 2.789 11.547 7.134 15.599l239.002 222.822zM665.425 684.338c2.109 2.008 4.601 3.569 7.328 4.588s5.635 1.475 8.544 1.341c2.908-0.134 5.758-0.855 8.38-2.121 2.625-1.265 4.963-3.048 6.878-5.242 3.994-4.437 6.042-10.172 5.769-16.179-0.236-5.942-2.813-11.549-7.168-15.599l-145.92-136.021c-2.109-2.004-4.605-3.56-7.332-4.577s-5.632-1.471-8.537-1.338c-2.908 0.137-5.758 0.857-8.38 2.116-2.625 1.263-4.963 3.045-6.881 5.233-3.973 4.424-6.031 10.24-5.734 16.179 0.222 5.929 2.789 11.527 7.134 15.565l145.92 136.055z" />
<glyph unicode="&#xe914;" glyph-name="card" d="M846.637-64.193h-261.421c-104.84 0-190.154 87.069-190.154 194.089v44.892h-150.535c-22.124-0.018-43.35 8.961-59.024 24.962-15.674 15.998-24.517 37.715-24.588 60.39v614.537c0 47.049 37.512 85.352 83.613 85.352h334.504c22.124 0.015 43.35-8.962 59.023-24.963s24.517-37.718 24.588-60.389v-164.726l160.42-204.607c26.030-33.309 40.24-74.696 40.293-117.371v-435.089c-0.003-2.247-0.439-4.47-1.279-6.545-0.843-2.074-2.074-3.956-3.628-5.541s-3.394-2.844-5.421-3.698c-2.025-0.857-4.195-1.296-6.39-1.293zM445.24 925.877h-200.713c-27.655 0-50.178-22.971-50.178-51.2v-614.537c0-28.23 22.524-51.2 50.178-51.2h200.713v179.89l-60.441 72.815c-12.564 15.1-19.089 34.509-18.268 54.333s8.93 38.596 22.697 52.549l1.702 1.688c14.628 14.213 34.16 21.896 54.31 21.366v334.294zM528.852 925.877h-50.179v-342.653c7.967-4.067 15.231-9.576 21.524-16.384l28.654-31.051v390.088zM629.21 874.677c0 28.229-22.525 51.2-50.179 51.2h-16.718v-426.373l66.896-72.564v447.736zM829.893 387.999c-0.029 34.921-11.659 68.789-32.973 96.037l-134.279 171.227v-264.578l62.359-67.613-24.359-23.412-224.777 243.768c-3.958 4.301-8.71 7.759-13.982 10.167-5.269 2.408-10.954 3.722-16.724 3.862-11.628 0.243-22.895-4.14-31.436-12.232-17.068-17.434-18.148-43.561-3.349-61.548l147.969-178.343c2.557-3.084 3.964-6.998 3.97-11.045v-59.058c-0.026-80.176 49.369-152.91 122.933-181.026l-11.747-31.966c-32.856 12.645-62.341 33.046-86.063 59.55-23.725 26.504-41.019 58.365-50.483 93h-108.458v-44.892c0-88.202 70.324-159.937 156.72-159.937h244.677v418.041zM478.673 348.508v-139.568h51.692c-1.006 8.724-1.513 17.505-1.513 26.29v52.806l-50.179 60.472zM378.317 379.641v-102.426c-0.004-2.247-0.439-4.47-1.281-6.542-0.842-2.074-2.074-3.958-3.627-5.544s-3.394-2.841-5.42-3.698c-2.026-0.857-4.197-1.296-6.389-1.29h-100.357c-2.192-0.006-4.363 0.433-6.389 1.29s-3.868 2.112-5.42 3.698c-1.552 1.586-2.785 3.47-3.627 5.544-0.842 2.071-1.277 4.295-1.281 6.542v102.426c0 9.438 7.508 17.077 16.717 17.077h100.357c9.236 0 16.717-7.639 16.717-17.077zM344.883 362.566h-66.895v-68.277h66.895v68.277zM328.166 874.677h33.434v-136.552h-33.434v136.552zM244.527 874.677h33.461v-221.903h-33.461v221.903z" />
<glyph unicode="&#xe915;" glyph-name="cash" d="M934.058 173.21h-18.671v-67.755c0-51.917-41.916-94.14-93.389-94.14h-31.744c-4.253-21.169-15.681-40.219-32.352-53.941-16.674-13.718-37.571-21.262-59.16-21.357h-571.426c-51.507 0-93.389 42.257-93.389 94.14v636.177c0 51.917 41.882 94.14 93.389 94.14h18.671v18.807c-0.045 14.914 5.826 29.236 16.327 39.826s24.773 16.583 39.686 16.665h56.047v67.755c-0.037 14.907 5.839 29.221 16.339 39.804s24.767 16.571 39.674 16.652h347.341c14.906-0.081 29.174-6.070 39.673-16.652s16.377-24.897 16.34-39.804v-143.053h104.585c51.473 0 93.389-42.223 93.389-94.14v-191.966c19.879-0.109 38.905-8.096 52.907-22.211 14.001-14.118 21.832-33.208 21.777-53.088v-169.404c0.038-14.906-5.84-29.222-16.34-39.803-10.499-10.585-24.767-16.572-39.673-16.654zM792.132 48.964h29.867c14.913 0.082 29.184 6.076 39.687 16.664 10.499 10.592 16.37 24.914 16.326 39.827v67.755h-85.879v-124.245zM145.988 722.825h-18.671c-14.913-0.081-29.186-6.074-39.686-16.665s-16.372-24.913-16.327-39.826c0-33.929 29.15-56.457 60.006-56.457h14.677v112.947zM202.001 798.123c-4.973-0.027-9.732-2.026-13.233-5.559s-5.456-8.309-5.438-13.283v-169.404h149.402v188.245h-130.731zM680.072 903.526c0.010 4.967-1.952 9.736-5.451 13.261s-8.253 5.52-13.22 5.547h-347.341c-4.967-0.027-9.721-2.022-13.221-5.547s-5.46-8.294-5.45-13.261v-67.755h242.756c14.913-0.081 29.184-6.074 39.687-16.665 10.499-10.59 16.37-24.913 16.326-39.826v-169.404h85.914v293.649zM370.073 798.123v-188.245h74.718v188.245h-74.718zM482.133 798.123v-188.245h74.684v169.404c0.017 4.973-1.939 9.75-5.437 13.283-3.502 3.533-8.26 5.532-13.233 5.559h-56.013zM698.743 572.228h-567.433c-21.639 0.003-42.694 7.021-60.006 20.002v-562.074c-0.045-14.913 5.826-29.235 16.327-39.827 10.5-10.588 24.773-16.582 39.686-16.664h571.426c14.913 0.082 29.184 6.076 39.687 16.664 10.499 10.592 16.37 24.914 16.326 39.827v143.053h-149.367c-14.913 0.072-29.187 6.055-39.697 16.64-10.506 10.585-16.387 24.904-16.35 39.817v75.298c-0.038 14.913 5.844 29.232 16.35 39.817 10.51 10.585 24.784 16.568 39.697 16.64h149.367v154.351c0.038 14.906-5.84 29.222-16.34 39.803-10.499 10.585-24.767 16.572-39.673 16.654zM878.012 666.334c0.044 14.914-5.827 29.236-16.326 39.826-10.503 10.59-24.774 16.583-39.687 16.665h-104.585v-114.825c21.149-4.458 40.12-16.060 53.726-32.853 13.606-16.797 21.019-37.762 20.992-59.375v-154.351h85.879v304.913zM915.388 436.719v-75.298c20.617 0 37.342 16.862 37.342 37.649 0.027 9.94-3.888 19.487-10.889 26.542-7.001 7.059-16.514 11.052-26.453 11.107zM952.729 333.875c-11.264-6.588-24.030-10.103-37.342-10.103h-309.999c-4.966-0.027-9.721-2.021-13.22-5.547-3.502-3.526-5.461-8.294-5.451-13.261v-75.298c-0.010-4.966 1.949-9.735 5.451-13.261 3.499-3.526 8.253-5.519 13.22-5.547h328.67c4.966 0.027 9.721 2.021 13.22 5.547s5.461 8.294 5.451 13.261v104.209zM821.999 248.474h-85.914c-4.973 0.027-9.731 2.028-13.233 5.56-3.499 3.529-5.455 8.308-5.437 13.281-0.010 4.966 1.952 9.735 5.451 13.261s8.253 5.519 13.22 5.547h85.914c4.966-0.027 9.721-2.021 13.22-5.547s5.461-8.294 5.451-13.261c0.017-4.973-1.939-9.752-5.437-13.281-3.502-3.533-8.26-5.533-13.233-5.56zM642.73 248.474c-4.973 0.027-9.731 2.028-13.233 5.56-3.499 3.529-5.455 8.308-5.437 13.281-0.010 4.966 1.949 9.735 5.451 13.261 3.499 3.526 8.253 5.519 13.22 5.547 4.966-0.027 9.721-2.021 13.22-5.547s5.461-8.294 5.451-13.261c0.017-4.973-1.939-9.752-5.437-13.281-3.502-3.533-8.26-5.533-13.233-5.56zM258.048 647.526c-4.973 0.018-9.736 2.009-13.243 5.535s-5.472 8.3-5.462 13.273v75.332c-0.009 4.973 1.955 9.747 5.462 13.273s8.269 5.517 13.243 5.535c4.967-0.027 9.721-2.022 13.221-5.547s5.46-8.294 5.45-13.261v-75.332c0.009-4.967-1.951-9.736-5.45-13.261s-8.253-5.52-13.221-5.547z" />
<glyph unicode="&#xe916;" glyph-name="check_double" d="M776.002 680l-280.002-278.001-62 62 280 278 62.002-62zM961.997 742l62.003-62-528-526.001-244 246 60 62 184.001-182.001 465.997 462zM0 400l64 62 244-246.001-62-62-246 246z" />
<glyph unicode="&#xe917;" glyph-name="selfdelivery" d="M876.11 312.272c1.616-6.1 2.016-12.459 1.17-18.712-0.844-6.254-2.916-12.278-6.093-17.73s-7.4-10.223-12.425-14.041c-5.025-3.816-10.754-6.602-16.859-8.202l-262.217-69.364c-13.31-3.521-27.021-5.308-40.789-5.315h-198.851c-30.013-0.080-59.424 8.411-84.773 24.478v-60.367c-0.010-1.582-0.332-3.145-0.944-4.603-0.614-1.458-1.512-2.779-2.636-3.891-1.126-1.112-2.458-1.992-3.923-2.587-1.465-0.597-3.033-0.9-4.615-0.89h-84.748c-1.582-0.010-3.15 0.293-4.615 0.89-1.465 0.595-2.798 1.475-3.923 2.587s-2.020 2.433-2.635 3.891c-0.614 1.458-0.935 3.021-0.945 4.603v275.090c0 6.607 5.413 11.947 12.117 11.947h84.748c6.705 0 12.117-5.339 12.117-11.947v-60.392c25.342 16.087 54.757 24.588 84.773 24.503h12.117v239.202h-24.235c-3.189-0.012-6.256 1.241-8.521 3.484-2.267 2.245-3.552 5.298-3.572 8.487v119.613c0 6.607 5.413 11.947 12.093 11.947h532.846c6.705 0 12.117-5.339 12.117-11.947v-119.613c-0.010-1.582-0.332-3.145-0.944-4.603-0.614-1.458-1.512-2.779-2.636-3.891-1.126-1.112-2.458-1.992-3.923-2.587-1.465-0.597-3.033-0.9-4.615-0.89h-24.21v-274.505c9.236-1.336 17.886-5.317 24.903-11.466 7.019-6.149 12.105-14.199 14.643-23.179zM231.063 406.139h-60.562v-251.173h60.562v251.173zM848.682 645.365v95.671h-508.635v-95.671h508.635zM376.374 621.423v-239.202h72.070c9.484 0.024 18.944-1.195 28.136-3.584l163.182-43.227c7.092-1.902 13.663-5.391 19.212-10.201s9.935-10.818 12.824-17.569l140.556 37.23v276.553h-435.98zM826.202 323.609c-1.1-0.185-2.189-0.422-3.267-0.707l-147.627-39.107c-0.244-2.462-0.707-4.925-1.365-7.314-2.867-10.145-8.977-19.073-17.393-25.42-8.419-6.349-18.681-9.769-29.223-9.738-4.267 0-8.509 0.536-12.605 1.609l-102.936 27.258c-1.482-1.426-3.311-2.443-5.303-2.953-1.994-0.51-4.086-0.492-6.071 0.049-1.985 0.539-3.796 1.585-5.257 3.035-1.46 1.448-2.519 3.252-3.074 5.235-0.556 1.98-0.588 4.072-0.093 6.068s1.499 3.833 2.914 5.325c1.417 1.495 3.194 2.594 5.161 3.194 1.968 0.602 4.057 0.683 6.066 0.234 1.551 1.499 3.472 2.56 5.566 3.072 2.094 0.514 4.289 0.463 6.356-0.146l102.936-27.258c6.176-1.675 12.761-0.839 18.322 2.326 5.559 3.167 9.64 8.404 11.349 14.57 0.539 1.87 0.802 3.808 0.78 5.754 0.080 0.524 0.185 1.046 0.317 1.56-0.188 0.478-0.351 0.968-0.488 1.463-0.558 4.815-2.553 9.353-5.722 13.022s-7.368 6.302-12.052 7.556l-163.133 43.203c-7.158 1.855-14.524 2.799-21.918 2.804h-108.398c-28.782 0.088-56.82-9.14-79.921-26.307l-4.852-3.584v-95.695l4.852-3.584c23.101-17.167 51.139-26.395 79.921-26.307h198.851c11.678 0 23.284 1.512 34.572 4.486l262.144 69.388c3.055 0.788 5.925 2.172 8.441 4.076 2.519 1.902 4.632 4.286 6.224 7.010 1.592 2.726 2.626 5.737 3.048 8.865 0.419 3.128 0.217 6.307-0.597 9.355-1.551 5.642-5.091 10.533-9.967 13.768s-10.757 4.598-16.56 3.835zM654.902 573.587h-121.1c-3.189-0.012-6.256 1.241-8.521 3.484-2.267 2.245-3.552 5.298-3.572 8.487 0 6.607 5.413 11.947 12.093 11.947h121.1c6.705 0 12.117-5.339 12.117-11.947-0.010-1.582-0.332-3.145-0.944-4.603-0.614-1.458-1.512-2.779-2.636-3.891-1.126-1.112-2.458-1.992-3.923-2.587-1.465-0.597-3.033-0.9-4.615-0.89z" />
</font>
</defs>
</svg>
