<svg xmlns="http://www.w3.org/2000/svg" viewBox="0 0 15.94 29.794">
  <defs>
    <style>
      .cls-1 {
        fill: #333;
      }
    </style>
  </defs>
  <g id="if_04_171508" transform="translate(-37.558)">
    <path id="Path_474" data-name="Path 474" class="cls-1" d="M52.553,25.276H38.5V2.328H52.553Zm-8.119,2.33a1.124,1.124,0,1,1,1.123,1.143,1.133,1.133,0,0,1-1.123-1.143M53.5,28.644h0V1.142h0V1.136h0A1.137,1.137,0,0,0,52.364,0H38.69a1.138,1.138,0,0,0-1.132,1.136h0V28.643h0c0,.012,0,.024,0,.036A1.131,1.131,0,0,0,38.7,29.794H52.38A1.117,1.117,0,0,0,53.5,28.679c0-.012,0-.024,0-.036"/>
  </g>
</svg>
